# xmcd CD database file
#
# Track frame offsets:
#	150
#	19635
#	38719
#	56633
#	80416
#	103475
#	125809
#	141299
#	166114
#	193207
#	209926
#	226683
#	243905
#	260722
#	275074
#
# Disc length: 3947 seconds
#
# Revision: 0
# Processed by: cddbd v1.4PL0 Copyright (c) Steve Scherf et al.
# Submitted via: Feurio! 1.65 - http://www.feurio.com
#
DISCID=e40f690f
DTITLE=Emmylou Harris and Linda Rondstadt - Austin, TX, Oct. 10 1999 - Disc 1
DYEAR=1900
DGENRE=Country
TTITLE0=Love the highwayman
TTITLE1=For a dancer
TTITLE2=Raise the dead
TTITLE3=Icy blue heart
TTITLE4=High sierra
TTITLE5=Valerie
TTITLE6=All I left behind
TTITLE7=Blue bayou
TTITLE8=1917
TTITLE9=Green pastures
TTITLE10=Orphan girl
TTITLE11=This is to mother you
TTITLE12=Get up John
TTITLE13=Introductions
TTITLE14=Telling me lies
EXTD=
EXTT0=
EXTT1=
EXTT2=
EXTT3=
EXTT4=
EXTT5=
EXTT6=
EXTT7=
EXTT8=
EXTT9=
EXTT10=
EXTT11=
EXTT12=
EXTT13=
EXTT14=
PLAYORDER=
